# xmcd
#
# Track frame offsets:
#	150
#	17075
#	47922
#	64119
#	88440
#	109806
#	130967
#	184913
#	193479
#	209413
#	228893
#	243244
#	261312
#	289106
#	299424
#
# Disc length: 4386 seconds
#
# Revision: 1
# Processed by: cddbd v1.5.2PL0 Copyright (c) Steve Scherf et al.
# Submitted via: audiograbber 1.83.01
#
DISCID=f111200f
DTITLE=Stevie Ray Vaughn - The Best of Stevie Ray Vaughan
DYEAR=2007
DGENRE=Blues
TTITLE0=Pride and Joy
TTITLE1=Little Wing
TTITLE2=Taxman
TTITLE3=Texas Flood
TTITLE4=Couldn't Stand the Weather
TTITLE5=Tightrope
TTITLE6=Voodoo Child (Slight Return) [Live]
TTITLE7=Scuttle Buttin'
TTITLE8=Empty Arms
TTITLE9=Life Without You
TTITLE10=Look At Little Sister
TTITLE11=Change It
TTITLE12=Ain't Gone 'N' Give Up On Love
TTITLE13=Boot Hill
TTITLE14=Dirty Pool
EXTD=
EXTT0=
EXTT1=
EXTT2=
EXTT3=
EXTT4=
EXTT5=
EXTT6=
EXTT7=
EXTT8=
EXTT9=
EXTT10=
EXTT11=
EXTT12=
EXTT13=
EXTT14=
PLAYORDER=
